# xmcd
#
# Track frame offsets: 
#        150
#        22182
#        39296
#        57180
#        79757
#        95462
#        114248
#        124732
#        142939
#        164739
#        185410
#        205670
#        224590
#        246045
#        264822
#
# Disc length: 3799 seconds
#
# Revision: 0
# Processed by: cddbd v1.5.2PL0 Copyright (c) Steve Scherf et al.
# Submitted via: ExactAudioCopy v0.99pb4
#
DISCID=cb0ed50f
DTITLE=Ja Rule - The Mirror
DYEAR=2007
DGENRE=Rap
TTITLE0=Uh Ohhhh (feat. Lil Wayne and Merc Montana)
TTITLE1=Body (feat. Ashley Joi)
TTITLE2=Sunset (feat. The Game)
TTITLE3=300 (feat. Newz, Tre and Merc Montana)
TTITLE4=Father Forgive Me
TTITLE5=Judas
TTITLE6=Rules of Engagement
TTITLE7=Enemy of The State
TTITLE8=Ladies
TTITLE9=Something New
TTITLE10=Damn (feat. Jenna)
TTITLE11=Hear Say (feat. Boxie)
TTITLE12=It's All Hood Now
TTITLE13=The Mirror (feat. Stefanee Morrison)
TTITLE14=Sing A Prayer 4 Me
EXTD=
EXTT0=
EXTT1=
EXTT2=
EXTT3=
EXTT4=
EXTT5=
EXTT6=
EXTT7=
EXTT8=
EXTT9=
EXTT10=
EXTT11=
EXTT12=
EXTT13=
EXTT14=
PLAYORDER=
